<svg width="20" height="20" viewBox="0 0 20 20" fill="none" xmlns="http://www.w3.org/2000/svg">
<path d="M4.16683 12.5002C2.32516 12.5002 0.833496 13.9918 0.833496 15.8335C0.833496 16.4585 1.0085 17.0502 1.31683 17.5502C1.89183 18.5168 2.95016 19.1668 4.16683 19.1668C5.3835 19.1668 6.44183 18.5168 7.01683 17.5502C7.32516 17.0502 7.50016 16.4585 7.50016 15.8335C7.50016 13.9918 6.0085 12.5002 4.16683 12.5002ZM5.4085 16.4418H4.79183V17.0918C4.79183 17.4335 4.5085 17.7168 4.16683 17.7168C3.82516 17.7168 3.54183 17.4335 3.54183 17.0918V16.4418H2.92516C2.5835 16.4418 2.30016 16.1585 2.30016 15.8168C2.30016 15.4752 2.5835 15.1918 2.92516 15.1918H3.54183V14.6002C3.54183 14.2585 3.82516 13.9752 4.16683 13.9752C4.5085 13.9752 4.79183 14.2585 4.79183 14.6002V15.1918H5.4085C5.75016 15.1918 6.0335 15.4752 6.0335 15.8168C6.0335 16.1585 5.7585 16.4418 5.4085 16.4418ZM17.9168 10.4168H15.8335C14.9168 10.4168 14.1668 11.1668 14.1668 12.0835C14.1668 13.0002 14.9168 13.7502 15.8335 13.7502H17.9168C18.1502 13.7502 18.3335 13.5668 18.3335 13.3335V10.8335C18.3335 10.6002 18.1502 10.4168 17.9168 10.4168ZM13.7745 4.50029C14.0245 4.74196 13.8162 5.11696 13.4662 5.11696L6.56619 5.10863C6.16619 5.10863 5.96619 4.62529 6.24952 4.34196L7.70785 2.87529C8.94116 1.65029 10.9328 1.65029 12.1662 2.87529L13.7412 4.46696C13.7495 4.47529 13.7662 4.49196 13.7745 4.50029Z" fill="#E63415"/>
<path d="M18.2245 15.5502C17.7162 17.2668 16.2495 18.3335 14.2495 18.3335H8.83283C8.50783 18.3335 8.29948 17.9752 8.43283 17.6752C8.68283 17.0918 8.84116 16.4335 8.84116 15.8335C8.84116 13.3085 6.78281 11.2502 4.25781 11.2502C3.62448 11.2502 3.00781 11.3835 2.44115 11.6335C2.13281 11.7668 1.75781 11.5585 1.75781 11.2252V10.0002C1.75781 7.7335 3.12448 6.15016 5.24948 5.8835C5.45781 5.85016 5.6828 5.8335 5.91614 5.8335H14.2495C14.4662 5.8335 14.6745 5.84183 14.8745 5.87516C16.5578 6.06683 17.7745 7.09183 18.2245 8.61683C18.3078 8.89183 18.1078 9.16683 17.8245 9.16683H15.9162C14.1078 9.16683 12.6745 10.8168 13.0662 12.6918C13.3412 14.0585 14.6078 15.0002 15.9995 15.0002H17.8245C18.1162 15.0002 18.3078 15.2835 18.2245 15.5502Z" fill="#E63415"/>
</svg>
