<svg width="20" height="20" viewBox="0 0 20 20" fill="none" xmlns="http://www.w3.org/2000/svg">
<path d="M18.3334 9.141V10.8577C18.3334 11.316 17.9667 11.691 17.5 11.7077H15.8667C14.9667 11.7077 14.1417 11.0493 14.0667 10.1493C14.0167 9.62433 14.2167 9.13267 14.5667 8.791C14.875 8.47433 15.3 8.29102 15.7667 8.29102H17.5C17.9667 8.30768 18.3334 8.68267 18.3334 9.141Z" fill="#E63415"/>
<path d="M17.0582 12.9582H15.8665C14.2832 12.9582 12.9498 11.7665 12.8165 10.2498C12.7415 9.38317 13.0582 8.5165 13.6915 7.89984C14.2248 7.34984 14.9665 7.0415 15.7665 7.0415H17.0582C17.2998 7.0415 17.4998 6.8415 17.4748 6.59984C17.2915 4.57484 15.9498 3.1915 13.9582 2.95817C13.7582 2.92484 13.5498 2.9165 13.3332 2.9165H5.83317C5.59984 2.9165 5.37484 2.93317 5.15817 2.9665C3.03317 3.23317 1.6665 4.8165 1.6665 7.08317V12.9165C1.6665 15.2165 3.53317 17.0832 5.83317 17.0832H13.3332C15.6665 17.0832 17.2748 15.6248 17.4748 13.3998C17.4998 13.1582 17.2998 12.9582 17.0582 12.9582ZM10.8332 8.12484H5.83317C5.4915 8.12484 5.20817 7.8415 5.20817 7.49984C5.20817 7.15817 5.4915 6.87484 5.83317 6.87484H10.8332C11.1748 6.87484 11.4582 7.15817 11.4582 7.49984C11.4582 7.8415 11.1748 8.12484 10.8332 8.12484Z" fill="#E63415"/>
</svg>
