<svg width="426" height="562" viewBox="0 0 426 562" fill="none" xmlns="http://www.w3.org/2000/svg">
<path fill-rule="evenodd" clip-rule="evenodd" d="M153.345 0H192.655V96.4085C186.197 95.7278 179.64 95.3788 173.001 95.3788C166.362 95.3788 159.804 95.7279 153.345 96.4087V0ZM288.799 236.806L212.335 280.986L192.699 246.905L269.118 202.752C277.374 212.896 284.058 224.371 288.799 236.806ZM288.8 325.194L212.334 281.013L192.702 315.097L269.118 359.248C277.374 349.105 284.058 337.629 288.8 325.194ZM192.655 403.441V315.105H153.387L133.664 281.015L57.2018 325.193C61.9433 337.628 68.6274 349.104 76.8829 359.247L153.345 315.069V403.441C159.746 404.462 166.312 404.992 173.001 404.992C179.689 404.992 186.254 404.462 192.655 403.441ZM76.8831 202.753L153.317 246.915L133.673 280.991L57.2019 236.807C61.9435 224.372 68.6276 212.896 76.8831 202.753Z" fill="#821A5D" fill-opacity="0.05"/>
<path d="M192.655 158.559C186.254 157.538 179.689 157.008 173.001 157.008C166.312 157.008 159.746 157.538 153.345 158.56V246.895H192.655V158.559Z" fill="#821A5D" fill-opacity="0.05"/>
<path d="M-60.3446 123.465L23.0882 171.671C15.3845 182.232 8.76807 193.638 3.40373 205.724L-80 157.535L-60.3446 123.465Z" fill="#821A5D" fill-opacity="0.05"/>
<path d="M3.40359 356.276L-80 404.465L-60.3446 438.535L23.088 390.329C15.3843 379.768 8.76791 368.362 3.40359 356.276Z" fill="#821A5D" fill-opacity="0.05"/>
<path d="M153.345 465.592V562H192.655V465.592C186.197 466.273 179.64 466.622 173.001 466.622C166.362 466.622 159.804 466.272 153.345 465.592Z" fill="#821A5D" fill-opacity="0.05"/>
<path d="M406.345 438.535L322.913 390.33C330.617 379.769 337.233 368.363 342.598 356.277L426 404.465L406.345 438.535Z" fill="#821A5D" fill-opacity="0.05"/>
<path d="M342.598 205.723L426 157.535L406.345 123.465L322.913 171.67C330.617 182.231 337.233 193.637 342.598 205.723Z" fill="#821A5D" fill-opacity="0.05"/>
</svg>
