<svg width="46" height="46" viewBox="0 0 46 46" fill="none" xmlns="http://www.w3.org/2000/svg">
<path d="M26.8333 26.833L31.625 31.6247" stroke="white" stroke-width="1.5" stroke-linejoin="round"/>
<path d="M31.4971 35.5069C30.3899 34.3997 30.3899 32.6045 31.4971 31.4974C32.6042 30.3902 34.3993 30.3902 35.5066 31.4974L41.3361 37.327C42.4434 38.4342 42.4434 40.2294 41.3361 41.3365C40.2291 42.4437 38.4339 42.4437 37.3267 41.3365L31.4971 35.5069Z" stroke="white" stroke-width="1.5" stroke-linecap="round"/>
<path d="M30.6667 17.2497C30.6667 9.83986 24.6598 3.83301 17.25 3.83301C9.8402 3.83301 3.83334 9.83986 3.83334 17.2497C3.83334 24.6595 9.8402 30.6663 17.25 30.6663C24.6598 30.6663 30.6667 24.6595 30.6667 17.2497Z" stroke="white" stroke-width="1.5" stroke-linejoin="round"/>
</svg>
