<svg width="40" height="41" viewBox="0 0 40 41" fill="none" xmlns="http://www.w3.org/2000/svg">
<mask id="mask0_1701_5287" style="mask-type:alpha" maskUnits="userSpaceOnUse" x="0" y="0" width="40" height="41">
<rect width="40" height="40.0507" fill="#D9D9D9"/>
</mask>
<g mask="url(#mask0_1701_5287)">
<path fill-rule="evenodd" clip-rule="evenodd" d="M7.33325 19.0235C7.33325 13.0449 7.33325 10.0555 9.18824 8.19816C11.0432 6.34082 14.0288 6.34082 19.9999 6.34082C25.971 6.34082 28.9566 6.34082 30.8117 8.19816C32.6666 10.0555 32.6666 13.0448 32.6666 19.0235V19.0235V19.0236C32.6666 25.0022 32.6666 27.9916 30.8117 29.849C28.9566 31.7063 25.971 31.7063 19.9999 31.7063H19.9999H19.9999C14.0288 31.7063 11.0432 31.7063 9.18824 29.849C7.33325 27.9916 7.33325 25.0022 7.33325 19.0235ZM20 14.5163C17.5165 14.5163 15.5 16.5326 15.5 19.0239C15.5 21.5152 17.5165 23.5315 20 23.5315C22.4835 23.5315 24.5 21.5152 24.5 19.0239C24.5 16.5326 22.4835 14.5163 20 14.5163ZM12.5 19.0239C12.5 14.8793 15.8561 11.5163 20 11.5163C24.144 11.5163 27.5 14.8793 27.5 19.0239C27.5 23.1684 24.144 26.5315 20 26.5315C15.8561 26.5315 12.5 23.1684 12.5 19.0239ZM27.3318 9.68156C26.2272 9.68156 25.3318 10.577 25.3318 11.6816C25.3318 12.7861 26.2272 13.6816 27.3318 13.6816H27.3438C28.4484 13.6816 29.3438 12.7861 29.3438 11.6816C29.3438 10.577 28.4484 9.68156 27.3438 9.68156H27.3318Z" fill="#821A5D"/>
<path d="M9.18824 8.19816L8.65757 7.66816L8.65757 7.66817L9.18824 8.19816ZM30.8117 8.19816L31.3423 7.66817L31.3423 7.66815L30.8117 8.19816ZM30.8117 29.849L31.3423 30.379L31.3423 30.379L30.8117 29.849ZM9.18824 29.849L8.65756 30.379L8.65758 30.379L9.18824 29.849ZM8.65757 7.66817C7.56767 8.75945 7.06481 10.1557 6.8218 11.9655C6.58166 13.7539 6.58325 16.0554 6.58325 19.0235H8.08325C8.08325 16.013 8.08484 13.8305 8.30845 12.1652C8.52918 10.5213 8.95382 9.49421 9.71891 8.72815L8.65757 7.66817ZM19.9999 5.59082C17.0356 5.59082 14.7368 5.58922 12.9505 5.82969C11.1425 6.07308 9.74761 6.57675 8.65757 7.66816L9.7189 8.72815C10.4839 7.96223 11.5093 7.53723 13.1506 7.31628C14.8136 7.09242 16.9931 7.09082 19.9999 7.09082V5.59082ZM31.3423 7.66815C30.2522 6.57675 28.8574 6.07308 27.0493 5.82969C25.263 5.58922 22.9642 5.59082 19.9999 5.59082V7.09082C23.0067 7.09082 25.1862 7.09242 26.8492 7.31628C28.4906 7.53723 29.516 7.96223 30.281 8.72816L31.3423 7.66815ZM33.4166 19.0235C33.4166 16.0554 33.4182 13.7539 33.178 11.9655C32.935 10.1557 32.4322 8.75946 31.3423 7.66817L30.281 8.72814C31.046 9.4942 31.4707 10.5213 31.6914 12.1652C31.915 13.8305 31.9166 16.013 31.9166 19.0235H33.4166ZM33.4166 19.0235V19.0235H31.9166V19.0235H33.4166ZM33.4166 19.0236V19.0235H31.9166V19.0236H33.4166ZM31.3423 30.379C32.4322 29.2876 32.935 27.8914 33.178 26.0815C33.4182 24.2932 33.4166 21.9917 33.4166 19.0236H31.9166C31.9166 22.034 31.915 24.2166 31.6914 25.8819C31.4707 27.5258 31.046 28.5529 30.281 29.319L31.3423 30.379ZM19.9999 32.4563C22.9642 32.4563 25.263 32.4579 27.0493 32.2174C28.8573 31.974 30.2522 31.4704 31.3423 30.379L30.281 29.319C29.516 30.0849 28.4906 30.5099 26.8492 30.7308C25.1862 30.9547 23.0067 30.9563 19.9999 30.9563V32.4563ZM19.9999 32.4563H19.9999V30.9563H19.9999V32.4563ZM19.9999 32.4563H19.9999V30.9563H19.9999V32.4563ZM8.65758 30.379C9.74762 31.4704 11.1425 31.974 12.9505 32.2174C14.7368 32.4579 17.0356 32.4563 19.9999 32.4563V30.9563C16.9931 30.9563 14.8136 30.9547 13.1506 30.7308C11.5093 30.5099 10.4839 30.0849 9.71889 29.319L8.65758 30.379ZM6.58325 19.0235C6.58325 21.9917 6.58166 24.2932 6.8218 26.0815C7.06481 27.8914 7.56767 29.2876 8.65756 30.379L9.71892 29.319C8.95382 28.5529 8.52918 27.5258 8.30845 25.8819C8.08484 24.2166 8.08325 22.034 8.08325 19.0235H6.58325ZM16.25 19.0239C16.25 16.946 17.9315 15.2663 20 15.2663V13.7663C17.1015 13.7663 14.75 16.1192 14.75 19.0239H16.25ZM20 22.7815C17.9315 22.7815 16.25 21.1018 16.25 19.0239H14.75C14.75 21.9286 17.1015 24.2815 20 24.2815V22.7815ZM23.75 19.0239C23.75 21.1018 22.0685 22.7815 20 22.7815V24.2815C22.8985 24.2815 25.25 21.9286 25.25 19.0239H23.75ZM20 15.2663C22.0685 15.2663 23.75 16.946 23.75 19.0239H25.25C25.25 16.1192 22.8985 13.7663 20 13.7663V15.2663ZM20 10.7663C15.4409 10.7663 11.75 14.4661 11.75 19.0239H13.25C13.25 15.2926 16.2712 12.2663 20 12.2663V10.7663ZM28.25 19.0239C28.25 14.4661 24.5591 10.7663 20 10.7663V12.2663C23.7288 12.2663 26.75 15.2926 26.75 19.0239H28.25ZM20 27.2815C24.5591 27.2815 28.25 23.5817 28.25 19.0239H26.75C26.75 22.7552 23.7288 25.7815 20 25.7815V27.2815ZM11.75 19.0239C11.75 23.5817 15.4409 27.2815 20 27.2815V25.7815C16.2712 25.7815 13.25 22.7552 13.25 19.0239H11.75ZM26.0818 11.6816C26.0818 10.9912 26.6414 10.4316 27.3318 10.4316V8.93156C25.813 8.93156 24.5818 10.1628 24.5818 11.6816H26.0818ZM27.3318 12.9316C26.6414 12.9316 26.0818 12.3719 26.0818 11.6816H24.5818C24.5818 13.2003 25.813 14.4316 27.3318 14.4316V12.9316ZM27.3438 12.9316H27.3318V14.4316H27.3438V12.9316ZM28.5938 11.6816C28.5938 12.3719 28.0341 12.9316 27.3438 12.9316V14.4316C28.8626 14.4316 30.0938 13.2003 30.0938 11.6816H28.5938ZM27.3438 10.4316C28.0341 10.4316 28.5938 10.9912 28.5938 11.6816H30.0938C30.0938 10.1628 28.8626 8.93156 27.3438 8.93156V10.4316ZM27.3318 10.4316H27.3438V8.93156H27.3318V10.4316Z" fill="#821A5D"/>
</g>
</svg>
