<svg width="38" height="37" viewBox="0 0 38 37" fill="none" xmlns="http://www.w3.org/2000/svg">
<mask id="mask0_1701_5309" style="mask-type:alpha" maskUnits="userSpaceOnUse" x="0" y="0" width="38" height="37">
<rect width="38" height="37" fill="#D9D9D9"/>
</mask>
<g mask="url(#mask0_1701_5309)">
<path fill-rule="evenodd" clip-rule="evenodd" d="M8.18824 9.18799C6.33325 11.043 6.33325 14.0286 6.33325 19.9997C6.33325 25.9707 6.33325 28.9563 8.18824 30.8114C10.0432 32.6663 13.0288 32.6663 18.9999 32.6663H18.9999H18.9999C24.971 32.6663 27.9566 32.6663 29.8117 30.8114C31.6666 28.9563 31.6666 25.9707 31.6666 19.9997V19.9997V19.9997C31.6666 14.0285 31.6666 11.043 29.8117 9.18799C27.9566 7.33301 24.971 7.33301 18.9999 7.33301C13.0288 7.33301 10.0432 7.33301 8.18824 9.18799ZM13.1666 19.537C13.1666 18.771 13.3367 18.6111 14.1515 18.6111H16.1211V16.2963C16.1211 13.7394 18.3258 11.6667 21.0454 11.6667H23.8484C24.6632 11.6667 24.8333 11.8265 24.8333 12.5926V14.4444C24.8333 15.2105 24.6632 15.3704 23.8484 15.3704H21.0454C20.5014 15.3704 20.0605 15.7849 20.0605 16.2963V18.6111H22.6943C23.7529 18.6111 23.932 18.8345 23.6413 19.7914L23.2192 21.1803C23.0494 21.7389 22.8902 21.8518 22.2722 21.8518H20.0605V27.4074C20.0605 28.1734 19.8905 28.3333 19.0757 28.3333H17.106C16.2912 28.3333 16.1211 28.1734 16.1211 27.4074V21.8518H14.1515C13.3367 21.8518 13.1666 21.692 13.1666 20.9259V19.537Z" fill="#821A5D"/>
<path d="M8.18824 9.18799L7.65791 8.65766L7.65791 8.65767L8.18824 9.18799ZM8.18824 30.8114L7.6579 31.3417L7.65792 31.3417L8.18824 30.8114ZM29.8117 30.8114L30.342 31.3418L30.342 31.3417L29.8117 30.8114ZM29.8117 9.18799L30.342 8.65767L30.342 8.65765L29.8117 9.18799ZM16.1211 18.6111V19.3611C16.5354 19.3611 16.8711 19.0253 16.8711 18.6111H16.1211ZM20.0605 18.6111H19.3105C19.3105 19.0253 19.6463 19.3611 20.0605 19.3611V18.6111ZM23.6413 19.7914L24.3589 20.0095L24.3589 20.0095L23.6413 19.7914ZM23.2192 21.1803L23.9368 21.3984L23.2192 21.1803ZM20.0605 21.8518V21.1018C19.6463 21.1018 19.3105 21.4376 19.3105 21.8518H20.0605ZM16.1211 21.8518H16.8711C16.8711 21.4376 16.5354 21.1018 16.1211 21.1018V21.8518ZM7.08325 19.9997C7.08325 16.9929 7.08484 14.8133 7.30844 13.1502C7.52913 11.5087 7.95365 10.4832 8.71857 9.71832L7.65791 8.65767C6.56784 9.74774 6.06487 11.1425 5.82181 12.9504C5.58166 14.7366 5.58325 17.0353 5.58325 19.9997H7.08325ZM8.71858 30.2811C7.95365 29.5161 7.52913 28.4906 7.30844 26.8491C7.08484 25.186 7.08325 23.0064 7.08325 19.9997H5.58325C5.58325 22.964 5.58166 25.2627 5.82181 27.049C6.06487 28.8568 6.56784 30.2516 7.6579 31.3417L8.71858 30.2811ZM18.9999 31.9163C15.9931 31.9163 13.8135 31.9147 12.1505 31.6912C10.509 31.4705 9.48348 31.046 8.71856 30.2811L7.65792 31.3417C8.74799 32.4318 10.1428 32.9347 11.9506 33.1778C13.7368 33.4179 16.0355 33.4163 18.9999 33.4163V31.9163ZM18.9999 31.9163H18.9999V33.4163H18.9999V31.9163ZM18.9999 31.9163H18.9999V33.4163H18.9999V31.9163ZM29.2813 30.2811C28.5164 31.046 27.4909 31.4705 25.8494 31.6912C24.1863 31.9147 22.0067 31.9163 18.9999 31.9163V33.4163C21.9643 33.4163 24.263 33.4179 26.0492 33.1778C27.857 32.9347 29.2519 32.4318 30.342 31.3418L29.2813 30.2811ZM30.9166 19.9997C30.9166 23.0064 30.915 25.186 30.6914 26.8491C30.4707 28.4906 30.0462 29.5161 29.2813 30.2811L30.342 31.3417C31.432 30.2516 31.935 28.8568 32.178 27.049C32.4182 25.2627 32.4166 22.964 32.4166 19.9997H30.9166ZM30.9166 19.9997V19.9997H32.4166V19.9997H30.9166ZM30.9166 19.9997V19.9997H32.4166V19.9997H30.9166ZM29.2813 9.71832C30.0462 10.4832 30.4707 11.5087 30.6914 13.1502C30.915 14.8133 30.9166 16.9929 30.9166 19.9997H32.4166C32.4166 17.0353 32.4182 14.7366 32.178 12.9504C31.935 11.1425 31.432 9.74775 30.342 8.65767L29.2813 9.71832ZM18.9999 8.08301C22.0067 8.08301 24.1863 8.0846 25.8494 8.30819C27.4909 8.52889 28.5164 8.95341 29.2813 9.71834L30.342 8.65765C29.2519 7.56759 27.8571 7.06462 26.0492 6.82157C24.263 6.58142 21.9643 6.58301 18.9999 6.58301V8.08301ZM8.71857 9.71833C9.48349 8.95341 10.509 8.52889 12.1505 8.30819C13.8135 8.0846 15.9932 8.08301 18.9999 8.08301V6.58301C16.0356 6.58301 13.7368 6.58141 11.9506 6.82157C10.1428 7.06462 8.74799 7.56759 7.65791 8.65766L8.71857 9.71833ZM14.1515 17.8611C13.9326 17.8611 13.7084 17.8709 13.5021 17.9135C13.2898 17.9574 13.0467 18.0458 12.8397 18.2404C12.4328 18.623 12.4166 19.1806 12.4166 19.537H13.9166C13.9166 19.3629 13.9274 19.2778 13.9362 19.2398C13.9425 19.213 13.9337 19.2707 13.8672 19.3332C13.8047 19.392 13.7568 19.3926 13.8055 19.3825C13.8603 19.3712 13.9629 19.3611 14.1515 19.3611V17.8611ZM16.1211 17.8611H14.1515V19.3611H16.1211V17.8611ZM15.3711 16.2963V18.6111H16.8711V16.2963H15.3711ZM21.0454 10.9167C17.9558 10.9167 15.3711 13.2823 15.3711 16.2963H16.8711C16.8711 14.1965 18.6957 12.4167 21.0454 12.4167V10.9167ZM23.8484 10.9167H21.0454V12.4167H23.8484V10.9167ZM25.5833 12.5926C25.5833 12.2362 25.567 11.6785 25.1601 11.2959C24.9532 11.1014 24.71 11.013 24.4977 10.9691C24.2915 10.9265 24.0673 10.9167 23.8484 10.9167V12.4167C24.037 12.4167 24.1396 12.4268 24.1943 12.4381C24.2431 12.4482 24.1952 12.4476 24.1327 12.3888C24.0662 12.3263 24.0574 12.2686 24.0636 12.2954C24.0725 12.3333 24.0833 12.4185 24.0833 12.5926H25.5833ZM25.5833 14.4444V12.5926H24.0833V14.4444H25.5833ZM23.8484 16.1204C24.0673 16.1204 24.2915 16.1105 24.4977 16.0679C24.71 16.0241 24.9532 15.9356 25.1601 15.7411C25.567 15.3585 25.5833 14.8008 25.5833 14.4444H24.0833C24.0833 14.6186 24.0725 14.7037 24.0636 14.7416C24.0574 14.7684 24.0662 14.7107 24.1327 14.6482C24.1952 14.5894 24.2431 14.5889 24.1943 14.5989C24.1396 14.6102 24.037 14.6204 23.8484 14.6204V16.1204ZM21.0454 16.1204H23.8484V14.6204H21.0454V16.1204ZM20.8105 16.2963C20.8105 16.2632 20.8234 16.2249 20.8627 16.188C20.9028 16.1503 20.9656 16.1204 21.0454 16.1204V14.6204C20.1315 14.6204 19.3105 15.3278 19.3105 16.2963H20.8105ZM20.8105 18.6111V16.2963H19.3105V18.6111H20.8105ZM22.6943 17.8611H20.0605V19.3611H22.6943V17.8611ZM24.3589 20.0095C24.4364 19.7542 24.5018 19.4896 24.5139 19.2397C24.5264 18.9822 24.486 18.6563 24.2588 18.3731C24.0377 18.0975 23.7355 17.983 23.4928 17.9289C23.2498 17.8747 22.974 17.8611 22.6943 17.8611V19.3611C22.9438 19.3611 23.0874 19.3754 23.1666 19.393C23.2462 19.4107 23.1691 19.4118 23.0888 19.3117C23.0023 19.204 23.0183 19.1133 23.0157 19.1669C23.0145 19.1925 23.0093 19.2378 22.994 19.3093C22.9789 19.38 22.9561 19.4667 22.9237 19.5734L24.3589 20.0095ZM23.9368 21.3984L24.3589 20.0095L22.9237 19.5733L22.5016 20.9623L23.9368 21.3984ZM22.2722 22.6018C22.5792 22.6018 22.9964 22.5864 23.3476 22.3374C23.7102 22.0803 23.8496 21.6855 23.9368 21.3984L22.5016 20.9623C22.4645 21.0844 22.4401 21.1397 22.4276 21.1627C22.4198 21.177 22.4344 21.1461 22.48 21.1137C22.5236 21.0828 22.5511 21.0823 22.5207 21.088C22.4832 21.0949 22.4108 21.1018 22.2722 21.1018V22.6018ZM20.0605 22.6018H22.2722V21.1018H20.0605V22.6018ZM20.8105 27.4074V21.8518H19.3105V27.4074H20.8105ZM19.0757 29.0833C19.2946 29.0833 19.5188 29.0735 19.725 29.0309C19.9373 28.987 20.1805 28.8986 20.3874 28.704C20.7943 28.3214 20.8105 27.7638 20.8105 27.4074H19.3105C19.3105 27.5815 19.2998 27.6667 19.2909 27.7046C19.2846 27.7314 19.2935 27.6737 19.3599 27.6112C19.4225 27.5524 19.4704 27.5518 19.4216 27.5619C19.3668 27.5732 19.2642 27.5833 19.0757 27.5833V29.0833ZM17.106 29.0833H19.0757V27.5833H17.106V29.0833ZM15.3711 27.4074C15.3711 27.7638 15.3874 28.3215 15.7943 28.704C16.0012 28.8986 16.2444 28.987 16.4567 29.0309C16.6629 29.0735 16.8871 29.0833 17.106 29.0833V27.5833C16.9175 27.5833 16.8149 27.5732 16.7601 27.5619C16.7113 27.5518 16.7592 27.5524 16.8218 27.6112C16.8882 27.6737 16.897 27.7314 16.8908 27.7046C16.8819 27.6666 16.8711 27.5815 16.8711 27.4074H15.3711ZM15.3711 21.8518V27.4074H16.8711V21.8518H15.3711ZM14.1515 22.6018H16.1211V21.1018H14.1515V22.6018ZM12.4166 20.9259C12.4166 21.2823 12.4328 21.84 12.8398 22.2226C13.0467 22.4171 13.2899 22.5056 13.5021 22.5494C13.7084 22.592 13.9326 22.6018 14.1515 22.6018V21.1018C13.9629 21.1018 13.8603 21.0917 13.8055 21.0804C13.7567 21.0703 13.8046 21.0709 13.8672 21.1297C13.9337 21.1922 13.9425 21.2499 13.9362 21.2231C13.9274 21.1852 13.9166 21.1 13.9166 20.9259H12.4166ZM12.4166 19.537V20.9259H13.9166V19.537H12.4166Z" fill="#821A5D"/>
</g>
</svg>
