<svg width="38" height="37" viewBox="0 0 38 37" fill="none" xmlns="http://www.w3.org/2000/svg">
<mask id="mask0_1701_5322" style="mask-type:alpha" maskUnits="userSpaceOnUse" x="0" y="0" width="38" height="37">
<rect width="38" height="37" fill="#D9D9D9"/>
</mask>
<g mask="url(#mask0_1701_5322)">
<path fill-rule="evenodd" clip-rule="evenodd" d="M7.85499 8.85499C6 10.71 6 13.6955 6 19.6667C6 25.6377 6 28.6233 7.85499 30.4784C9.70998 32.3333 12.6955 32.3333 18.6666 32.3333H18.6667H18.6667C24.6377 32.3333 27.6233 32.3333 29.4784 30.4784C31.3333 28.6233 31.3333 25.6377 31.3333 19.6667V19.6667V19.6666C31.3333 13.6955 31.3333 10.71 29.4784 8.85499C27.6233 7 24.6377 7 18.6667 7C12.6955 7 9.70999 7 7.85499 8.85499ZM13.6125 15.2249C14.503 15.2249 15.2249 14.503 15.2249 13.6125C15.2249 12.7219 14.503 12 13.6125 12C12.7219 12 12 12.7219 12 13.6125C12 14.503 12.7219 15.2249 13.6125 15.2249ZM12.2099 17.5848C12.4198 17.3749 12.7576 17.3749 13.4333 17.3749H13.7916C14.4673 17.3749 14.8051 17.3749 15.015 17.5848C15.2249 17.7947 15.2249 18.1325 15.2249 18.8082V24.8997C15.2249 25.5754 15.2249 25.9132 15.015 26.1231C14.8051 26.333 14.4673 26.333 13.7916 26.333H13.4333C12.7576 26.333 12.4198 26.333 12.2099 26.1231C12 25.9132 12 25.5754 12 24.8997V18.8082C12 18.1325 12 17.7947 12.2099 17.5848ZM19.4001 17.3749H18.8082C18.1325 17.3749 17.7947 17.3749 17.5848 17.5848C17.3749 17.7947 17.3749 18.1325 17.3749 18.8082V24.8997C17.3749 25.5754 17.3749 25.9132 17.5848 26.1231C17.7947 26.333 18.1325 26.333 18.8082 26.333H19.1665C19.8422 26.333 20.18 26.333 20.3899 26.1231C20.5998 25.9132 20.5998 25.5754 20.5998 24.8997L20.5999 22.3915C20.5999 21.2042 20.9783 20.2416 22.0961 20.2416C22.6549 20.2416 23.1081 20.7229 23.1081 21.3165V24.5415C23.1081 25.2171 23.1081 25.5549 23.318 25.7648C23.5278 25.9748 23.8657 25.9748 24.5414 25.9748H24.8988C25.5743 25.9748 25.912 25.9748 26.122 25.7649C26.3319 25.5551 26.3319 25.2173 26.3321 24.5418V24.5418L26.3331 20.5999C26.3331 18.8189 24.6391 17.375 22.9625 17.375C22.008 17.375 21.1564 17.8429 20.5999 18.5746V18.5741C20.5998 18.1228 20.5998 17.8972 20.5018 17.7296C20.4396 17.6235 20.3512 17.5351 20.2451 17.473C20.0774 17.3749 19.8517 17.3749 19.4001 17.3749Z" fill="#821A5D"/>
</g>
</svg>
