<svg width="39" height="32" viewBox="0 0 39 32" fill="none" xmlns="http://www.w3.org/2000/svg">
<path d="M23.7999 30H8.19995C4.89995 30 2.19995 27.3 2.19995 24V23.8L2.79995 7.8C2.89995 4.5 5.59995 2 8.79995 2H23.2C26.4 2 29.1 4.5 29.2 7.8L29.7999 23.8C29.9 25.4 29.3 26.9 28.2 28.1C27.1 29.3 25.6 30 24 30H23.7999ZM8.79995 4C6.59995 4 4.89995 5.7 4.79995 7.8L4.19995 24C4.19995 26.2 5.99995 28 8.19995 28H24C25.1 28 26.0999 27.5 26.7999 26.7C27.5 25.9 27.9 24.9 27.9 23.8L27.2999 7.8C27.1999 5.6 25.5 4 23.2999 4H8.79995Z" fill="white"/>
<path d="M16 14C12.1 14 9 10.9 9 7C9 6.4 9.4 6 10 6C10.6 6 11 6.4 11 7C11 9.8 13.2 12 16 12C18.8 12 21 9.8 21 7C21 6.4 21.4 6 22 6C22.6 6 23 6.4 23 7C23 10.9 19.9 14 16 14Z" fill="white"/>
<circle cx="31" cy="24" r="8" fill="#E63415"/>
<path d="M30.85 27.26C29.14 27.26 28 25.81 28 23.63C28 21.45 29.14 20 30.85 20C32.55 20 33.69 21.45 33.69 23.63C33.69 25.81 32.55 27.26 30.85 27.26ZM30.85 26.22C31.85 26.22 32.52 25.19 32.52 23.63C32.52 22.07 31.85 21.04 30.85 21.04C29.84 21.04 29.18 22.07 29.18 23.63C29.18 25.19 29.84 26.22 30.85 26.22Z" fill="white"/>
</svg>
