<svg width="252" height="286" viewBox="0 0 252 286" fill="none" xmlns="http://www.w3.org/2000/svg">
<path fill-rule="evenodd" clip-rule="evenodd" d="M-37.3546 -3.35463C-54.3445 13.6352 -60.4804 37.3689 -55.7622 59.2299C-74.5565 71.3517 -87 92.4727 -87 116.5C-87 140.527 -74.5565 161.648 -55.7622 173.771C-60.4804 195.631 -54.3445 219.364 -37.3546 236.355C-20.3646 253.344 3.36893 259.48 25.2299 254.763C37.3518 273.557 58.4727 286 82.5 286C106.527 286 127.648 273.557 139.771 254.763C161.631 259.48 185.364 253.344 202.355 236.355C219.344 219.364 225.48 195.631 220.763 173.771C239.557 161.648 252 140.527 252 116.5C252 92.4727 239.557 71.3517 220.763 59.2299C225.48 37.3689 219.344 13.6354 202.355 -3.35463C185.364 -20.3445 161.631 -26.4804 139.771 -21.7622C127.648 -40.5564 106.527 -53 82.5 -53C58.4727 -53 37.3517 -40.5565 25.2299 -21.7623C3.36893 -26.4804 -20.3646 -20.3445 -37.3546 -3.35463Z" fill="white" fill-opacity="0.1"/>
</svg>
