<svg width="28" height="28" viewBox="0 0 28 28" fill="none" xmlns="http://www.w3.org/2000/svg">
<path fill-rule="evenodd" clip-rule="evenodd" d="M3.18824 3.18799C1.33325 5.04299 1.33325 8.02855 1.33325 13.9997C1.33325 19.9707 1.33325 22.9563 3.18824 24.8114C5.04324 26.6663 8.02879 26.6663 13.9999 26.6663H13.9999H13.9999C19.971 26.6663 22.9566 26.6663 24.8117 24.8114C26.6666 22.9563 26.6666 19.9707 26.6666 13.9997V13.9997V13.9997C26.6666 8.02855 26.6666 5.04299 24.8117 3.18799C22.9566 1.33301 19.971 1.33301 13.9999 1.33301C8.0288 1.33301 5.04324 1.33301 3.18824 3.18799ZM8.16661 13.537C8.16661 12.771 8.33666 12.6111 9.15146 12.6111H11.1211V10.2963C11.1211 7.73943 13.3258 5.66667 16.0454 5.66667H18.8484C19.6632 5.66667 19.8333 5.82654 19.8333 6.59259V8.44444C19.8333 9.21049 19.6632 9.37037 18.8484 9.37037H16.0454C15.5014 9.37037 15.0605 9.78493 15.0605 10.2963V12.6111H17.6943C18.7529 12.6111 18.932 12.8345 18.6413 13.7914L18.2192 15.1803C18.0494 15.7389 17.8902 15.8518 17.2722 15.8518H15.0605V21.4074C15.0605 22.1734 14.8905 22.3333 14.0757 22.3333H12.106C11.2912 22.3333 11.1211 22.1734 11.1211 21.4074V15.8518H9.15146C8.33666 15.8518 8.16661 15.692 8.16661 14.9259V13.537Z" fill="#821A5D"/>
<path d="M3.18824 3.18799L2.65791 2.65766L2.65791 2.65767L3.18824 3.18799ZM3.18824 24.8114L2.6579 25.3417L2.65792 25.3417L3.18824 24.8114ZM24.8117 24.8114L25.342 25.3418L25.342 25.3417L24.8117 24.8114ZM24.8117 3.18799L25.342 2.65767L25.342 2.65765L24.8117 3.18799ZM11.1211 12.6111V13.3611C11.5354 13.3611 11.8711 13.0253 11.8711 12.6111H11.1211ZM15.0605 12.6111H14.3105C14.3105 13.0253 14.6463 13.3611 15.0605 13.3611V12.6111ZM18.6413 13.7914L19.3589 14.0095L19.3589 14.0095L18.6413 13.7914ZM18.2192 15.1803L18.9368 15.3984L18.2192 15.1803ZM15.0605 15.8518V15.1018C14.6463 15.1018 14.3105 15.4376 14.3105 15.8518H15.0605ZM11.1211 15.8518H11.8711C11.8711 15.4376 11.5354 15.1018 11.1211 15.1018V15.8518ZM2.08325 13.9997C2.08325 10.9929 2.08484 8.81329 2.30844 7.15023C2.52913 5.50874 2.95365 4.48325 3.71857 3.71832L2.65791 2.65767C1.56784 3.74774 1.06487 5.14253 0.821813 6.95035C0.581659 8.7366 0.583252 11.0353 0.583252 13.9997H2.08325ZM3.71858 24.2811C2.95365 23.5161 2.52913 22.4906 2.30844 20.8491C2.08484 19.186 2.08325 17.0064 2.08325 13.9997H0.583252C0.583252 16.964 0.581659 19.2627 0.821813 21.049C1.06487 22.8568 1.56784 24.2516 2.6579 25.3417L3.71858 24.2811ZM13.9999 25.9163C10.9931 25.9163 8.81352 25.9147 7.15046 25.6912C5.50897 25.4705 4.48348 25.046 3.71856 24.2811L2.65792 25.3417C3.74799 26.4318 5.14278 26.9347 6.9506 27.1778C8.73684 27.4179 11.0355 27.4163 13.9999 27.4163V25.9163ZM13.9999 25.9163H13.9999V27.4163H13.9999V25.9163ZM13.9999 25.9163H13.9999V27.4163H13.9999V25.9163ZM24.2813 24.2811C23.5164 25.046 22.4909 25.4705 20.8494 25.6912C19.1863 25.9147 17.0067 25.9163 13.9999 25.9163V27.4163C16.9643 27.4163 19.263 27.4179 21.0492 27.1778C22.857 26.9347 24.2519 26.4318 25.342 25.3418L24.2813 24.2811ZM25.9166 13.9997C25.9166 17.0064 25.915 19.186 25.6914 20.8491C25.4707 22.4906 25.0462 23.5161 24.2813 24.2811L25.342 25.3417C26.432 24.2516 26.935 22.8568 27.178 21.049C27.4182 19.2627 27.4166 16.964 27.4166 13.9997H25.9166ZM25.9166 13.9997V13.9997H27.4166V13.9997H25.9166ZM25.9166 13.9997V13.9997H27.4166V13.9997H25.9166ZM24.2813 3.71832C25.0462 4.48324 25.4707 5.50873 25.6914 7.15022C25.915 8.81328 25.9166 10.9929 25.9166 13.9997H27.4166C27.4166 11.0353 27.4182 8.73659 27.178 6.95035C26.935 5.14254 26.432 3.74775 25.342 2.65767L24.2813 3.71832ZM13.9999 2.08301C17.0067 2.08301 19.1863 2.0846 20.8494 2.30819C22.4909 2.52889 23.5164 2.95341 24.2813 3.71834L25.342 2.65765C24.2519 1.56759 22.8571 1.06462 21.0492 0.821569C19.263 0.581415 16.9643 0.583008 13.9999 0.583008V2.08301ZM3.71857 3.71833C4.48349 2.95341 5.50898 2.52889 7.15047 2.30819C8.81353 2.0846 10.9932 2.08301 13.9999 2.08301V0.583008C11.0356 0.583008 8.73684 0.581415 6.9506 0.821569C5.14278 1.06462 3.74799 1.56759 2.65791 2.65766L3.71857 3.71833ZM9.15146 11.8611C8.93259 11.8611 8.70839 11.8709 8.50211 11.9135C8.28981 11.9574 8.04666 12.0458 7.83974 12.2404C7.43283 12.623 7.41661 13.1806 7.41661 13.537H8.91661C8.91661 13.3629 8.92737 13.2778 8.93623 13.2398C8.9425 13.213 8.93367 13.2707 8.86722 13.3332C8.80467 13.392 8.7568 13.3926 8.80555 13.3825C8.86031 13.3712 8.96292 13.3611 9.15146 13.3611V11.8611ZM11.1211 11.8611H9.15146V13.3611H11.1211V11.8611ZM10.3711 10.2963V12.6111H11.8711V10.2963H10.3711ZM16.0454 4.91667C12.9558 4.91667 10.3711 7.2823 10.3711 10.2963H11.8711C11.8711 8.19655 13.6957 6.41667 16.0454 6.41667V4.91667ZM18.8484 4.91667H16.0454V6.41667H18.8484V4.91667ZM20.5833 6.59259C20.5833 6.23619 20.567 5.67851 20.1601 5.29593C19.9532 5.10139 19.71 5.01297 19.4977 4.96912C19.2915 4.92652 19.0673 4.91667 18.8484 4.91667V6.41667C19.037 6.41667 19.1396 6.4268 19.1943 6.43811C19.2431 6.44818 19.1952 6.4476 19.1327 6.38879C19.0662 6.32631 19.0574 6.26859 19.0636 6.2954C19.0725 6.33335 19.0833 6.41848 19.0833 6.59259H20.5833ZM20.5833 8.44444V6.59259H19.0833V8.44444H20.5833ZM18.8484 10.1204C19.0673 10.1204 19.2915 10.1105 19.4977 10.0679C19.71 10.0241 19.9532 9.93564 20.1601 9.7411C20.567 9.35853 20.5833 8.80084 20.5833 8.44444H19.0833C19.0833 8.61855 19.0725 8.70369 19.0636 8.74163C19.0574 8.76844 19.0662 8.71072 19.1327 8.64824C19.1952 8.58943 19.2431 8.58885 19.1943 8.59892C19.1396 8.61023 19.037 8.62037 18.8484 8.62037V10.1204ZM16.0454 10.1204H18.8484V8.62037H16.0454V10.1204ZM15.8105 10.2963C15.8105 10.2632 15.8234 10.2249 15.8627 10.188C15.9028 10.1503 15.9656 10.1204 16.0454 10.1204V8.62037C15.1315 8.62037 14.3105 9.32782 14.3105 10.2963H15.8105ZM15.8105 12.6111V10.2963H14.3105V12.6111H15.8105ZM17.6943 11.8611H15.0605V13.3611H17.6943V11.8611ZM19.3589 14.0095C19.4364 13.7542 19.5018 13.4896 19.5139 13.2397C19.5264 12.9822 19.486 12.6563 19.2588 12.3731C19.0377 12.0975 18.7355 11.983 18.4928 11.9289C18.2498 11.8747 17.974 11.8611 17.6943 11.8611V13.3611C17.9438 13.3611 18.0874 13.3754 18.1666 13.393C18.2462 13.4107 18.1691 13.4118 18.0888 13.3117C18.0023 13.204 18.0183 13.1133 18.0157 13.1669C18.0145 13.1925 18.0093 13.2378 17.994 13.3093C17.9789 13.38 17.9561 13.4667 17.9237 13.5734L19.3589 14.0095ZM18.9368 15.3984L19.3589 14.0095L17.9237 13.5733L17.5016 14.9623L18.9368 15.3984ZM17.2722 16.6018C17.5792 16.6018 17.9964 16.5864 18.3476 16.3374C18.7102 16.0803 18.8496 15.6855 18.9368 15.3984L17.5016 14.9623C17.4645 15.0844 17.4401 15.1397 17.4276 15.1627C17.4198 15.177 17.4344 15.1461 17.48 15.1137C17.5236 15.0828 17.5511 15.0823 17.5207 15.088C17.4832 15.0949 17.4108 15.1018 17.2722 15.1018V16.6018ZM15.0605 16.6018H17.2722V15.1018H15.0605V16.6018ZM15.8105 21.4074V15.8518H14.3105V21.4074H15.8105ZM14.0757 23.0833C14.2946 23.0833 14.5188 23.0735 14.725 23.0309C14.9373 22.987 15.1805 22.8986 15.3874 22.704C15.7943 22.3214 15.8105 21.7638 15.8105 21.4074H14.3105C14.3105 21.5815 14.2998 21.6667 14.2909 21.7046C14.2846 21.7314 14.2935 21.6737 14.3599 21.6112C14.4225 21.5524 14.4704 21.5518 14.4216 21.5619C14.3668 21.5732 14.2642 21.5833 14.0757 21.5833V23.0833ZM12.106 23.0833H14.0757V21.5833H12.106V23.0833ZM10.3711 21.4074C10.3711 21.7638 10.3874 22.3215 10.7943 22.704C11.0012 22.8986 11.2444 22.987 11.4567 23.0309C11.6629 23.0735 11.8871 23.0833 12.106 23.0833V21.5833C11.9175 21.5833 11.8149 21.5732 11.7601 21.5619C11.7113 21.5518 11.7592 21.5524 11.8218 21.6112C11.8882 21.6737 11.897 21.7314 11.8908 21.7046C11.8819 21.6666 11.8711 21.5815 11.8711 21.4074H10.3711ZM10.3711 15.8518V21.4074H11.8711V15.8518H10.3711ZM9.15146 16.6018H11.1211V15.1018H9.15146V16.6018ZM7.41661 14.9259C7.41661 15.2823 7.43282 15.84 7.83976 16.2226C8.04669 16.4171 8.28986 16.5056 8.50215 16.5494C8.70842 16.592 8.93261 16.6018 9.15146 16.6018V15.1018C8.9629 15.1018 8.86029 15.0917 8.80551 15.0804C8.75675 15.0703 8.80463 15.0709 8.8672 15.1297C8.93367 15.1922 8.9425 15.2499 8.93624 15.2231C8.92737 15.1852 8.91661 15.1 8.91661 14.9259H7.41661ZM7.41661 13.537V14.9259H8.91661V13.537H7.41661Z" fill="#821A5D"/>
</svg>
