<svg width="28" height="28" viewBox="0 0 28 28" fill="none" xmlns="http://www.w3.org/2000/svg">
<path fill-rule="evenodd" clip-rule="evenodd" d="M1.33325 14.0196C1.33325 8.04095 1.33325 5.0516 3.18824 3.19425C5.04324 1.33691 8.0288 1.33691 13.9999 1.33691C19.971 1.33691 22.9566 1.33691 24.8117 3.19425C26.6666 5.0516 26.6666 8.04095 26.6666 14.0196C26.6666 19.9983 26.6666 22.9877 24.8117 24.8451C22.9566 26.7024 19.971 26.7024 13.9999 26.7024H13.9999H13.9999C8.02879 26.7024 5.04324 26.7024 3.18824 24.8451C1.33325 22.9877 1.33325 19.9983 1.33325 14.0196ZM14 9.51236C11.5165 9.51236 9.5 11.5287 9.5 14.02C9.5 16.5113 11.5165 18.5276 14 18.5276C16.4835 18.5276 18.5 16.5113 18.5 14.02C18.5 11.5287 16.4835 9.51236 14 9.51236ZM6.5 14.02C6.5 9.87542 9.85608 6.51236 14 6.51236C18.144 6.51236 21.5 9.87542 21.5 14.02C21.5 18.1645 18.144 21.5276 14 21.5276C9.85608 21.5276 6.5 18.1645 6.5 14.02ZM21.3318 5.17766C20.5034 5.17766 19.8318 5.84923 19.8318 6.67766C19.8318 7.50609 20.5034 8.17766 21.3318 8.17766H21.3438C22.1722 8.17766 22.8438 7.50609 22.8438 6.67766C22.8438 5.84923 22.1722 5.17766 21.3438 5.17766H21.3318Z" fill="#E63415"/>
<path d="M3.18824 3.19425L2.65757 2.66426L2.65757 2.66426L3.18824 3.19425ZM24.8117 3.19425L25.3423 2.66427L25.3423 2.66425L24.8117 3.19425ZM24.8117 24.8451L25.3423 25.3751L25.3423 25.375L24.8117 24.8451ZM3.18824 24.8451L2.65756 25.3751L2.65758 25.3751L3.18824 24.8451ZM2.65757 2.66426C1.56767 3.75555 1.06481 5.1518 0.821796 6.96163C0.581663 8.74999 0.583252 11.0515 0.583252 14.0196H2.08325C2.08325 11.0091 2.08484 8.82658 2.30845 7.16125C2.52918 5.51741 2.95382 4.49031 3.71891 3.72424L2.65757 2.66426ZM13.9999 0.586914C11.0356 0.586914 8.7368 0.585317 6.95047 0.825786C5.14248 1.06917 3.74761 1.57284 2.65757 2.66426L3.7189 3.72425C4.48386 2.95832 5.50928 2.53332 7.15059 2.31238C8.81358 2.08851 10.9931 2.08691 13.9999 2.08691V0.586914ZM25.3423 2.66425C24.2522 1.57284 22.8574 1.06917 21.0493 0.825786C19.263 0.585317 16.9642 0.586914 13.9999 0.586914V2.08691C17.0067 2.08691 19.1862 2.08851 20.8492 2.31238C22.4906 2.53333 23.516 2.95832 24.281 3.72426L25.3423 2.66425ZM27.4166 14.0196C27.4166 11.0515 27.4182 8.74999 27.178 6.96163C26.935 5.1518 26.4322 3.75556 25.3423 2.66427L24.281 3.72424C25.046 4.4903 25.4707 5.5174 25.6914 7.16125C25.915 8.82658 25.9166 11.0091 25.9166 14.0196H27.4166ZM25.3423 25.375C26.4322 24.2837 26.935 22.8875 27.178 21.0776C27.4182 19.2893 27.4166 16.9878 27.4166 14.0196H25.9166C25.9166 17.0301 25.915 19.2127 25.6914 20.878C25.4707 22.5219 25.046 23.549 24.281 24.3151L25.3423 25.375ZM13.9999 27.4524C16.9642 27.4524 19.263 27.454 21.0493 27.2135C22.8573 26.9701 24.2522 26.4665 25.3423 25.3751L24.281 24.3151C23.516 25.081 22.4906 25.506 20.8492 25.7269C19.1862 25.9508 17.0067 25.9524 13.9999 25.9524V27.4524ZM13.9999 27.4524H13.9999V25.9524H13.9999V27.4524ZM13.9999 27.4524H13.9999V25.9524H13.9999V27.4524ZM2.65758 25.3751C3.74762 26.4665 5.14248 26.9701 6.95047 27.2135C8.73679 27.454 11.0356 27.4524 13.9999 27.4524V25.9524C10.9931 25.9524 8.81357 25.9508 7.15059 25.7269C5.50927 25.506 4.48385 25.081 3.71889 24.3151L2.65758 25.3751ZM0.583252 14.0196C0.583252 16.9878 0.581663 19.2893 0.821796 21.0776C1.06481 22.8875 1.56767 24.2837 2.65756 25.3751L3.71892 24.3151C2.95382 23.549 2.52918 22.5219 2.30845 20.878C2.08484 19.2127 2.08325 17.0301 2.08325 14.0196H0.583252ZM10.25 14.02C10.25 11.9421 11.9315 10.2624 14 10.2624V8.76236C11.1015 8.76236 8.75 11.1153 8.75 14.02H10.25ZM14 17.7776C11.9315 17.7776 10.25 16.0978 10.25 14.02H8.75C8.75 16.9247 11.1015 19.2776 14 19.2776V17.7776ZM17.75 14.02C17.75 16.0979 16.0685 17.7776 14 17.7776V19.2776C16.8985 19.2776 19.25 16.9247 19.25 14.02H17.75ZM14 10.2624C16.0685 10.2624 17.75 11.9421 17.75 14.02H19.25C19.25 11.1153 16.8985 8.76236 14 8.76236V10.2624ZM14 5.76236C9.44091 5.76236 5.75 9.46216 5.75 14.02H7.25C7.25 10.2887 10.2712 7.26236 14 7.26236V5.76236ZM22.25 14.02C22.25 9.46216 18.5591 5.76236 14 5.76236V7.26236C17.7288 7.26236 20.75 10.2887 20.75 14.02H22.25ZM14 22.2776C18.5591 22.2776 22.25 18.5778 22.25 14.02H20.75C20.75 17.7513 17.7288 20.7776 14 20.7776V22.2776ZM5.75 14.02C5.75 18.5778 9.44092 22.2776 14 22.2776V20.7776C10.2712 20.7776 7.25 17.7513 7.25 14.02H5.75ZM20.5818 6.67766C20.5818 6.26345 20.9176 5.92766 21.3318 5.92766V4.42766C20.0891 4.42766 19.0818 5.43502 19.0818 6.67766H20.5818ZM21.3318 7.42766C20.9176 7.42766 20.5818 7.09187 20.5818 6.67766H19.0818C19.0818 7.9203 20.0891 8.92766 21.3318 8.92766V7.42766ZM21.3438 7.42766H21.3318V8.92766H21.3438V7.42766ZM22.0938 6.67766C22.0938 7.09187 21.758 7.42766 21.3438 7.42766V8.92766C22.5864 8.92766 23.5938 7.9203 23.5938 6.67766H22.0938ZM21.3438 5.92766C21.758 5.92766 22.0938 6.26345 22.0938 6.67766H23.5938C23.5938 5.43502 22.5864 4.42766 21.3438 4.42766V5.92766ZM21.3318 5.92766H21.3438V4.42766H21.3318V5.92766Z" fill="#E63415"/>
</svg>
