<svg width="28" height="28" viewBox="0 0 28 28" fill="none" xmlns="http://www.w3.org/2000/svg">
<path fill-rule="evenodd" clip-rule="evenodd" d="M1.33325 14.0235C1.33325 8.04485 1.33325 5.05551 3.18824 3.19816C5.04324 1.34082 8.0288 1.34082 13.9999 1.34082C19.971 1.34082 22.9566 1.34082 24.8117 3.19816C26.6666 5.05551 26.6666 8.04485 26.6666 14.0235V14.0235V14.0236C26.6666 20.0022 26.6666 22.9916 24.8117 24.849C22.9566 26.7063 19.971 26.7063 13.9999 26.7063H13.9999H13.9999C8.02879 26.7063 5.04324 26.7063 3.18824 24.849C1.33325 22.9916 1.33325 20.0022 1.33325 14.0235ZM14 9.51626C11.5165 9.51626 9.5 11.5326 9.5 14.0239C9.5 16.5152 11.5165 18.5315 14 18.5315C16.4835 18.5315 18.5 16.5152 18.5 14.0239C18.5 11.5326 16.4835 9.51626 14 9.51626ZM6.5 14.0239C6.5 9.87932 9.85608 6.51626 14 6.51626C18.144 6.51626 21.5 9.87933 21.5 14.0239C21.5 18.1684 18.144 21.5315 14 21.5315C9.85608 21.5315 6.5 18.1684 6.5 14.0239ZM21.3318 4.68156C20.2272 4.68156 19.3318 5.577 19.3318 6.68156C19.3318 7.78613 20.2272 8.68156 21.3318 8.68156H21.3438C22.4484 8.68156 23.3438 7.78613 23.3438 6.68156C23.3438 5.577 22.4484 4.68156 21.3438 4.68156H21.3318Z" fill="#821A5D"/>
<path d="M3.18824 3.19816L2.65757 2.66816L2.65757 2.66817L3.18824 3.19816ZM24.8117 3.19816L25.3423 2.66817L25.3423 2.66815L24.8117 3.19816ZM24.8117 24.849L25.3423 25.379L25.3423 25.379L24.8117 24.849ZM3.18824 24.849L2.65756 25.379L2.65758 25.379L3.18824 24.849ZM2.65757 2.66817C1.56767 3.75945 1.06481 5.1557 0.821796 6.96554C0.581663 8.75389 0.583252 11.0554 0.583252 14.0235H2.08325C2.08325 11.013 2.08484 8.83049 2.30845 7.16516C2.52918 5.52131 2.95382 4.49421 3.71891 3.72815L2.65757 2.66817ZM13.9999 0.59082C11.0356 0.59082 8.7368 0.589224 6.95047 0.829692C5.14248 1.07308 3.74761 1.57675 2.65757 2.66816L3.7189 3.72815C4.48386 2.96223 5.50928 2.53723 7.15059 2.31628C8.81358 2.09242 10.9931 2.09082 13.9999 2.09082V0.59082ZM25.3423 2.66815C24.2522 1.57675 22.8574 1.07308 21.0493 0.829692C19.263 0.589224 16.9642 0.59082 13.9999 0.59082V2.09082C17.0067 2.09082 19.1862 2.09242 20.8492 2.31628C22.4906 2.53723 23.516 2.96223 24.281 3.72816L25.3423 2.66815ZM27.4166 14.0235C27.4166 11.0554 27.4182 8.75389 27.178 6.96553C26.935 5.15571 26.4322 3.75946 25.3423 2.66817L24.281 3.72814C25.046 4.4942 25.4707 5.5213 25.6914 7.16515C25.915 8.83048 25.9166 11.013 25.9166 14.0235H27.4166ZM27.4166 14.0235V14.0235H25.9166V14.0235H27.4166ZM27.4166 14.0236V14.0235H25.9166V14.0236H27.4166ZM25.3423 25.379C26.4322 24.2876 26.935 22.8914 27.178 21.0815C27.4182 19.2932 27.4166 16.9917 27.4166 14.0236H25.9166C25.9166 17.034 25.915 19.2166 25.6914 20.8819C25.4707 22.5258 25.046 23.5529 24.281 24.319L25.3423 25.379ZM13.9999 27.4563C16.9642 27.4563 19.263 27.4579 21.0493 27.2174C22.8573 26.974 24.2522 26.4704 25.3423 25.379L24.281 24.319C23.516 25.0849 22.4906 25.5099 20.8492 25.7308C19.1862 25.9547 17.0067 25.9563 13.9999 25.9563V27.4563ZM13.9999 27.4563H13.9999V25.9563H13.9999V27.4563ZM13.9999 27.4563H13.9999V25.9563H13.9999V27.4563ZM2.65758 25.379C3.74762 26.4704 5.14248 26.974 6.95047 27.2174C8.73679 27.4579 11.0356 27.4563 13.9999 27.4563V25.9563C10.9931 25.9563 8.81357 25.9547 7.15059 25.7308C5.50927 25.5099 4.48385 25.0849 3.71889 24.319L2.65758 25.379ZM0.583252 14.0235C0.583252 16.9917 0.581663 19.2932 0.821796 21.0815C1.06481 22.8914 1.56767 24.2876 2.65756 25.379L3.71892 24.319C2.95382 23.5529 2.52918 22.5258 2.30845 20.8819C2.08484 19.2166 2.08325 17.034 2.08325 14.0235H0.583252ZM10.25 14.0239C10.25 11.946 11.9315 10.2663 14 10.2663V8.76626C11.1015 8.76626 8.75 11.1192 8.75 14.0239H10.25ZM14 17.7815C11.9315 17.7815 10.25 16.1018 10.25 14.0239H8.75C8.75 16.9286 11.1015 19.2815 14 19.2815V17.7815ZM17.75 14.0239C17.75 16.1018 16.0685 17.7815 14 17.7815V19.2815C16.8985 19.2815 19.25 16.9286 19.25 14.0239H17.75ZM14 10.2663C16.0685 10.2663 17.75 11.946 17.75 14.0239H19.25C19.25 11.1192 16.8985 8.76626 14 8.76626V10.2663ZM14 5.76626C9.44091 5.76626 5.75 9.46606 5.75 14.0239H7.25C7.25 10.2926 10.2712 7.26626 14 7.26626V5.76626ZM22.25 14.0239C22.25 9.46607 18.5591 5.76626 14 5.76626V7.26626C17.7288 7.26626 20.75 10.2926 20.75 14.0239H22.25ZM14 22.2815C18.5591 22.2815 22.25 18.5817 22.25 14.0239H20.75C20.75 17.7552 17.7288 20.7815 14 20.7815V22.2815ZM5.75 14.0239C5.75 18.5817 9.44092 22.2815 14 22.2815V20.7815C10.2712 20.7815 7.25 17.7552 7.25 14.0239H5.75ZM20.0818 6.68156C20.0818 5.99121 20.6414 5.43156 21.3318 5.43156V3.93156C19.813 3.93156 18.5818 5.16278 18.5818 6.68156H20.0818ZM21.3318 7.93156C20.6414 7.93156 20.0818 7.37192 20.0818 6.68156H18.5818C18.5818 8.20035 19.813 9.43156 21.3318 9.43156V7.93156ZM21.3438 7.93156H21.3318V9.43156H21.3438V7.93156ZM22.5938 6.68156C22.5938 7.37192 22.0341 7.93156 21.3438 7.93156V9.43156C22.8626 9.43156 24.0938 8.20035 24.0938 6.68156H22.5938ZM21.3438 5.43156C22.0341 5.43156 22.5938 5.99121 22.5938 6.68156H24.0938C24.0938 5.16278 22.8626 3.93156 21.3438 3.93156V5.43156ZM21.3318 5.43156H21.3438V3.93156H21.3318V5.43156Z" fill="#821A5D"/>
</svg>
